# xmcd
#
# Track frame offsets: 
#        150
#        20240
#        44263
#        66985
#        103095
#        134814
#        152680
#        185920
#        215523
#
# Disc length: 3368 seconds
#
# Revision: 3
# Processed by: cddbd v1.5.2PL0 Copyright (c) Steve Scherf et al.
# Submitted via: ExactAudioCopy v0.99pb5
#
DISCID=8f0d2609
DTITLE=Steve Hogarth - Ice Cream Genius
DYEAR=1997
DGENRE=Progressive Rock
TTITLE0=The Evening Shadows
TTITLE1=Really Like
TTITLE2=You Dinosaur Thing
TTITLE3=The Deep Water
TTITLE4=Cage
TTITLE5=Until You Fall
TTITLE6=Better Dreams
TTITLE7=Nothing To Declare
TTITLE8=The Last Thing
EXTD=
EXTT0=
EXTT1=
EXTT2=
EXTT3=
EXTT4=
EXTT5=
EXTT6=
EXTT7=
EXTT8=
PLAYORDER=
